<?xml version="1.0" encoding="utf-8" standalone="no"?>
<!DOCTYPE svg PUBLIC "-//W3C//DTD SVG 1.1//EN"
  "http://www.w3.org/Graphics/SVG/1.1/DTD/svg11.dtd">
<svg xmlns:xlink="http://www.w3.org/1999/xlink" width="164.807562pt" height="221.497059pt" viewBox="0 0 164.807562 221.497059" xmlns="http://www.w3.org/2000/svg" version="1.1">
 <metadata>
  <rdf:RDF xmlns:dc="http://purl.org/dc/elements/1.1/" xmlns:cc="http://creativecommons.org/ns#" xmlns:rdf="http://www.w3.org/1999/02/22-rdf-syntax-ns#">
   <cc:Work>
    <dc:type rdf:resource="http://purl.org/dc/dcmitype/StillImage"/>
    <dc:date>2026-01-27T15:30:29.487499</dc:date>
    <dc:format>image/svg+xml</dc:format>
    <dc:creator>
     <cc:Agent>
      <dc:title>Matplotlib v3.10.8, https://matplotlib.org/</dc:title>
     </cc:Agent>
    </dc:creator>
   </cc:Work>
  </rdf:RDF>
 </metadata>
 <defs>
  <style type="text/css">*{stroke-linejoin: round; stroke-linecap: butt}</style>
 </defs>
 <g id="figure_1">
  <g id="patch_1">
   <path d="M 0 221.497059 
L 164.807562 221.497059 
L 164.807562 0 
L 0 0 
z
" style="fill: #ffffff"/>
  </g>
  <g id="axes_1">
   <g id="patch_2">
    <path d="M 62.773563 173.339184 
L 157.607562 173.339184 
L 157.607562 28.935864 
L 62.773563 28.935864 
z
" style="fill: #ffffff"/>
   </g>
   <g id="matplotlib.axis_1">
    <g id="xtick_1">
     <g id="line2d_1">
      <defs>
       <path id="m8f09a30ec4" d="M 0 0 
L 0 4 
" style="stroke: #000000; stroke-width: 1.2"/>
      </defs>
      <g>
       <use xlink:href="#m8f09a30ec4" x="90.665915" y="173.339184" style="stroke: #000000; stroke-width: 1.2"/>
      </g>
     </g>
     <g id="text_1">
      <!-- Static, -->
      <g transform="translate(75.38279 188.712778) scale(0.11 -0.11)">
       <defs>
        <path id="ArialMT-53" d="M 288 1472 
L 859 1522 
Q 900 1178 1048 958 
Q 1197 738 1509 602 
Q 1822 466 2213 466 
Q 2559 466 2825 569 
Q 3091 672 3220 851 
Q 3350 1031 3350 1244 
Q 3350 1459 3225 1620 
Q 3100 1781 2813 1891 
Q 2628 1963 1997 2114 
Q 1366 2266 1113 2400 
Q 784 2572 623 2826 
Q 463 3081 463 3397 
Q 463 3744 659 4045 
Q 856 4347 1234 4503 
Q 1613 4659 2075 4659 
Q 2584 4659 2973 4495 
Q 3363 4331 3572 4012 
Q 3781 3694 3797 3291 
L 3216 3247 
Q 3169 3681 2898 3903 
Q 2628 4125 2100 4125 
Q 1550 4125 1298 3923 
Q 1047 3722 1047 3438 
Q 1047 3191 1225 3031 
Q 1400 2872 2139 2705 
Q 2878 2538 3153 2413 
Q 3553 2228 3743 1945 
Q 3934 1663 3934 1294 
Q 3934 928 3725 604 
Q 3516 281 3123 101 
Q 2731 -78 2241 -78 
Q 1619 -78 1198 103 
Q 778 284 539 648 
Q 300 1013 288 1472 
z
" transform="scale(0.015625)"/>
        <path id="ArialMT-74" d="M 1650 503 
L 1731 6 
Q 1494 -44 1306 -44 
Q 1000 -44 831 53 
Q 663 150 594 308 
Q 525 466 525 972 
L 525 2881 
L 113 2881 
L 113 3319 
L 525 3319 
L 525 4141 
L 1084 4478 
L 1084 3319 
L 1650 3319 
L 1650 2881 
L 1084 2881 
L 1084 941 
Q 1084 700 1114 631 
Q 1144 563 1211 522 
Q 1278 481 1403 481 
Q 1497 481 1650 503 
z
" transform="scale(0.015625)"/>
        <path id="ArialMT-61" d="M 2588 409 
Q 2275 144 1986 34 
Q 1697 -75 1366 -75 
Q 819 -75 525 192 
Q 231 459 231 875 
Q 231 1119 342 1320 
Q 453 1522 633 1644 
Q 813 1766 1038 1828 
Q 1203 1872 1538 1913 
Q 2219 1994 2541 2106 
Q 2544 2222 2544 2253 
Q 2544 2597 2384 2738 
Q 2169 2928 1744 2928 
Q 1347 2928 1158 2789 
Q 969 2650 878 2297 
L 328 2372 
Q 403 2725 575 2942 
Q 747 3159 1072 3276 
Q 1397 3394 1825 3394 
Q 2250 3394 2515 3294 
Q 2781 3194 2906 3042 
Q 3031 2891 3081 2659 
Q 3109 2516 3109 2141 
L 3109 1391 
Q 3109 606 3145 398 
Q 3181 191 3288 0 
L 2700 0 
Q 2613 175 2588 409 
z
M 2541 1666 
Q 2234 1541 1622 1453 
Q 1275 1403 1131 1340 
Q 988 1278 909 1158 
Q 831 1038 831 891 
Q 831 666 1001 516 
Q 1172 366 1500 366 
Q 1825 366 2078 508 
Q 2331 650 2450 897 
Q 2541 1088 2541 1459 
L 2541 1666 
z
" transform="scale(0.015625)"/>
        <path id="ArialMT-69" d="M 425 3934 
L 425 4581 
L 988 4581 
L 988 3934 
L 425 3934 
z
M 425 0 
L 425 3319 
L 988 3319 
L 988 0 
L 425 0 
z
" transform="scale(0.015625)"/>
        <path id="ArialMT-63" d="M 2588 1216 
L 3141 1144 
Q 3050 572 2676 248 
Q 2303 -75 1759 -75 
Q 1078 -75 664 370 
Q 250 816 250 1647 
Q 250 2184 428 2587 
Q 606 2991 970 3192 
Q 1334 3394 1763 3394 
Q 2303 3394 2647 3120 
Q 2991 2847 3088 2344 
L 2541 2259 
Q 2463 2594 2264 2762 
Q 2066 2931 1784 2931 
Q 1359 2931 1093 2626 
Q 828 2322 828 1663 
Q 828 994 1084 691 
Q 1341 388 1753 388 
Q 2084 388 2306 591 
Q 2528 794 2588 1216 
z
" transform="scale(0.015625)"/>
        <path id="ArialMT-2c" d="M 569 0 
L 569 641 
L 1209 641 
L 1209 0 
Q 1209 -353 1084 -570 
Q 959 -788 688 -906 
L 531 -666 
Q 709 -588 793 -436 
Q 878 -284 888 0 
L 569 0 
z
" transform="scale(0.015625)"/>
       </defs>
       <use xlink:href="#ArialMT-53"/>
       <use xlink:href="#ArialMT-74" transform="translate(66.699219 0)"/>
       <use xlink:href="#ArialMT-61" transform="translate(94.482422 0)"/>
       <use xlink:href="#ArialMT-74" transform="translate(150.097656 0)"/>
       <use xlink:href="#ArialMT-69" transform="translate(177.880859 0)"/>
       <use xlink:href="#ArialMT-63" transform="translate(200.097656 0)"/>
       <use xlink:href="#ArialMT-2c" transform="translate(250.097656 0)"/>
      </g>
      <!-- Bottlenecks -->
      <g transform="translate(62.235212 200.34734) scale(0.11 -0.11)">
       <defs>
        <path id="ArialMT-42" d="M 469 0 
L 469 4581 
L 2188 4581 
Q 2713 4581 3030 4442 
Q 3347 4303 3526 4014 
Q 3706 3725 3706 3409 
Q 3706 3116 3547 2856 
Q 3388 2597 3066 2438 
Q 3481 2316 3704 2022 
Q 3928 1728 3928 1328 
Q 3928 1006 3792 729 
Q 3656 453 3456 303 
Q 3256 153 2954 76 
Q 2653 0 2216 0 
L 469 0 
z
M 1075 2656 
L 2066 2656 
Q 2469 2656 2644 2709 
Q 2875 2778 2992 2937 
Q 3109 3097 3109 3338 
Q 3109 3566 3000 3739 
Q 2891 3913 2687 3977 
Q 2484 4041 1991 4041 
L 1075 4041 
L 1075 2656 
z
M 1075 541 
L 2216 541 
Q 2509 541 2628 563 
Q 2838 600 2978 687 
Q 3119 775 3209 942 
Q 3300 1109 3300 1328 
Q 3300 1584 3169 1773 
Q 3038 1963 2805 2039 
Q 2572 2116 2134 2116 
L 1075 2116 
L 1075 541 
z
" transform="scale(0.015625)"/>
        <path id="ArialMT-6f" d="M 213 1659 
Q 213 2581 725 3025 
Q 1153 3394 1769 3394 
Q 2453 3394 2887 2945 
Q 3322 2497 3322 1706 
Q 3322 1066 3130 698 
Q 2938 331 2570 128 
Q 2203 -75 1769 -75 
Q 1072 -75 642 372 
Q 213 819 213 1659 
z
M 791 1659 
Q 791 1022 1069 705 
Q 1347 388 1769 388 
Q 2188 388 2466 706 
Q 2744 1025 2744 1678 
Q 2744 2294 2464 2611 
Q 2184 2928 1769 2928 
Q 1347 2928 1069 2612 
Q 791 2297 791 1659 
z
" transform="scale(0.015625)"/>
        <path id="ArialMT-6c" d="M 409 0 
L 409 4581 
L 972 4581 
L 972 0 
L 409 0 
z
" transform="scale(0.015625)"/>
        <path id="ArialMT-65" d="M 2694 1069 
L 3275 997 
Q 3138 488 2766 206 
Q 2394 -75 1816 -75 
Q 1088 -75 661 373 
Q 234 822 234 1631 
Q 234 2469 665 2931 
Q 1097 3394 1784 3394 
Q 2450 3394 2872 2941 
Q 3294 2488 3294 1666 
Q 3294 1616 3291 1516 
L 816 1516 
Q 847 969 1125 678 
Q 1403 388 1819 388 
Q 2128 388 2347 550 
Q 2566 713 2694 1069 
z
M 847 1978 
L 2700 1978 
Q 2663 2397 2488 2606 
Q 2219 2931 1791 2931 
Q 1403 2931 1139 2672 
Q 875 2413 847 1978 
z
" transform="scale(0.015625)"/>
        <path id="ArialMT-6e" d="M 422 0 
L 422 3319 
L 928 3319 
L 928 2847 
Q 1294 3394 1984 3394 
Q 2284 3394 2536 3286 
Q 2788 3178 2913 3003 
Q 3038 2828 3088 2588 
Q 3119 2431 3119 2041 
L 3119 0 
L 2556 0 
L 2556 2019 
Q 2556 2363 2490 2533 
Q 2425 2703 2258 2804 
Q 2091 2906 1866 2906 
Q 1506 2906 1245 2678 
Q 984 2450 984 1813 
L 984 0 
L 422 0 
z
" transform="scale(0.015625)"/>
        <path id="ArialMT-6b" d="M 425 0 
L 425 4581 
L 988 4581 
L 988 1969 
L 2319 3319 
L 3047 3319 
L 1778 2088 
L 3175 0 
L 2481 0 
L 1384 1697 
L 988 1316 
L 988 0 
L 425 0 
z
" transform="scale(0.015625)"/>
        <path id="ArialMT-73" d="M 197 991 
L 753 1078 
Q 800 744 1014 566 
Q 1228 388 1613 388 
Q 2000 388 2187 545 
Q 2375 703 2375 916 
Q 2375 1106 2209 1216 
Q 2094 1291 1634 1406 
Q 1016 1563 777 1677 
Q 538 1791 414 1992 
Q 291 2194 291 2438 
Q 291 2659 392 2848 
Q 494 3038 669 3163 
Q 800 3259 1026 3326 
Q 1253 3394 1513 3394 
Q 1903 3394 2198 3281 
Q 2494 3169 2634 2976 
Q 2775 2784 2828 2463 
L 2278 2388 
Q 2241 2644 2061 2787 
Q 1881 2931 1553 2931 
Q 1166 2931 1000 2803 
Q 834 2675 834 2503 
Q 834 2394 903 2306 
Q 972 2216 1119 2156 
Q 1203 2125 1616 2013 
Q 2213 1853 2448 1751 
Q 2684 1650 2818 1456 
Q 2953 1263 2953 975 
Q 2953 694 2789 445 
Q 2625 197 2315 61 
Q 2006 -75 1616 -75 
Q 969 -75 630 194 
Q 291 463 197 991 
z
" transform="scale(0.015625)"/>
       </defs>
       <use xlink:href="#ArialMT-42"/>
       <use xlink:href="#ArialMT-6f" transform="translate(66.699219 0)"/>
       <use xlink:href="#ArialMT-74" transform="translate(122.314453 0)"/>
       <use xlink:href="#ArialMT-74" transform="translate(150.097656 0)"/>
       <use xlink:href="#ArialMT-6c" transform="translate(177.880859 0)"/>
       <use xlink:href="#ArialMT-65" transform="translate(200.097656 0)"/>
       <use xlink:href="#ArialMT-6e" transform="translate(255.712891 0)"/>
       <use xlink:href="#ArialMT-65" transform="translate(311.328125 0)"/>
       <use xlink:href="#ArialMT-63" transform="translate(366.943359 0)"/>
       <use xlink:href="#ArialMT-6b" transform="translate(416.943359 0)"/>
       <use xlink:href="#ArialMT-73" transform="translate(466.943359 0)"/>
      </g>
     </g>
    </g>
    <g id="xtick_2">
     <g id="line2d_2">
      <g>
       <use xlink:href="#m8f09a30ec4" x="129.71521" y="173.339184" style="stroke: #000000; stroke-width: 1.2"/>
      </g>
     </g>
     <g id="text_2">
      <!-- Dynamic, -->
      <g transform="translate(106.794819 188.712778) scale(0.11 -0.11)">
       <defs>
        <path id="ArialMT-44" d="M 494 0 
L 494 4581 
L 2072 4581 
Q 2606 4581 2888 4516 
Q 3281 4425 3559 4188 
Q 3922 3881 4101 3404 
Q 4281 2928 4281 2316 
Q 4281 1794 4159 1391 
Q 4038 988 3847 723 
Q 3656 459 3429 307 
Q 3203 156 2883 78 
Q 2563 0 2147 0 
L 494 0 
z
M 1100 541 
L 2078 541 
Q 2531 541 2789 625 
Q 3047 709 3200 863 
Q 3416 1078 3536 1442 
Q 3656 1806 3656 2325 
Q 3656 3044 3420 3430 
Q 3184 3816 2847 3947 
Q 2603 4041 2063 4041 
L 1100 4041 
L 1100 541 
z
" transform="scale(0.015625)"/>
        <path id="ArialMT-79" d="M 397 -1278 
L 334 -750 
Q 519 -800 656 -800 
Q 844 -800 956 -737 
Q 1069 -675 1141 -563 
Q 1194 -478 1313 -144 
Q 1328 -97 1363 -6 
L 103 3319 
L 709 3319 
L 1400 1397 
Q 1534 1031 1641 628 
Q 1738 1016 1872 1384 
L 2581 3319 
L 3144 3319 
L 1881 -56 
Q 1678 -603 1566 -809 
Q 1416 -1088 1222 -1217 
Q 1028 -1347 759 -1347 
Q 597 -1347 397 -1278 
z
" transform="scale(0.015625)"/>
        <path id="ArialMT-6d" d="M 422 0 
L 422 3319 
L 925 3319 
L 925 2853 
Q 1081 3097 1340 3245 
Q 1600 3394 1931 3394 
Q 2300 3394 2536 3241 
Q 2772 3088 2869 2813 
Q 3263 3394 3894 3394 
Q 4388 3394 4653 3120 
Q 4919 2847 4919 2278 
L 4919 0 
L 4359 0 
L 4359 2091 
Q 4359 2428 4304 2576 
Q 4250 2725 4106 2815 
Q 3963 2906 3769 2906 
Q 3419 2906 3187 2673 
Q 2956 2441 2956 1928 
L 2956 0 
L 2394 0 
L 2394 2156 
Q 2394 2531 2256 2718 
Q 2119 2906 1806 2906 
Q 1569 2906 1367 2781 
Q 1166 2656 1075 2415 
Q 984 2175 984 1722 
L 984 0 
L 422 0 
z
" transform="scale(0.015625)"/>
       </defs>
       <use xlink:href="#ArialMT-44"/>
       <use xlink:href="#ArialMT-79" transform="translate(72.216797 0)"/>
       <use xlink:href="#ArialMT-6e" transform="translate(122.216797 0)"/>
       <use xlink:href="#ArialMT-61" transform="translate(177.832031 0)"/>
       <use xlink:href="#ArialMT-6d" transform="translate(233.447266 0)"/>
       <use xlink:href="#ArialMT-69" transform="translate(316.748047 0)"/>
       <use xlink:href="#ArialMT-63" transform="translate(338.964844 0)"/>
       <use xlink:href="#ArialMT-2c" transform="translate(388.964844 0)"/>
      </g>
      <!-- Non- -->
      <g transform="translate(117.794819 200.476246) scale(0.11 -0.11)">
       <defs>
        <path id="ArialMT-4e" d="M 488 0 
L 488 4581 
L 1109 4581 
L 3516 984 
L 3516 4581 
L 4097 4581 
L 4097 0 
L 3475 0 
L 1069 3600 
L 1069 0 
L 488 0 
z
" transform="scale(0.015625)"/>
        <path id="ArialMT-2d" d="M 203 1375 
L 203 1941 
L 1931 1941 
L 1931 1375 
L 203 1375 
z
" transform="scale(0.015625)"/>
       </defs>
       <use xlink:href="#ArialMT-4e"/>
       <use xlink:href="#ArialMT-6f" transform="translate(72.216797 0)"/>
       <use xlink:href="#ArialMT-6e" transform="translate(127.832031 0)"/>
       <use xlink:href="#ArialMT-2d" transform="translate(183.447266 0)"/>
      </g>
      <!-- bottlenecks -->
      <g transform="translate(101.894663 212.110809) scale(0.11 -0.11)">
       <defs>
        <path id="ArialMT-62" d="M 941 0 
L 419 0 
L 419 4581 
L 981 4581 
L 981 2947 
Q 1338 3394 1891 3394 
Q 2197 3394 2470 3270 
Q 2744 3147 2920 2923 
Q 3097 2700 3197 2384 
Q 3297 2069 3297 1709 
Q 3297 856 2875 390 
Q 2453 -75 1863 -75 
Q 1275 -75 941 416 
L 941 0 
z
M 934 1684 
Q 934 1088 1097 822 
Q 1363 388 1816 388 
Q 2184 388 2453 708 
Q 2722 1028 2722 1663 
Q 2722 2313 2464 2622 
Q 2206 2931 1841 2931 
Q 1472 2931 1203 2611 
Q 934 2291 934 1684 
z
" transform="scale(0.015625)"/>
       </defs>
       <use xlink:href="#ArialMT-62"/>
       <use xlink:href="#ArialMT-6f" transform="translate(55.615234 0)"/>
       <use xlink:href="#ArialMT-74" transform="translate(111.230469 0)"/>
       <use xlink:href="#ArialMT-74" transform="translate(139.013672 0)"/>
       <use xlink:href="#ArialMT-6c" transform="translate(166.796875 0)"/>
       <use xlink:href="#ArialMT-65" transform="translate(189.013672 0)"/>
       <use xlink:href="#ArialMT-6e" transform="translate(244.628906 0)"/>
       <use xlink:href="#ArialMT-65" transform="translate(300.244141 0)"/>
       <use xlink:href="#ArialMT-63" transform="translate(355.859375 0)"/>
       <use xlink:href="#ArialMT-6b" transform="translate(405.859375 0)"/>
       <use xlink:href="#ArialMT-73" transform="translate(455.859375 0)"/>
      </g>
     </g>
    </g>
   </g>
   <g id="matplotlib.axis_2">
    <g id="ytick_1">
     <g id="line2d_3">
      <defs>
       <path id="m18ebde9578" d="M 0 0 
L -3.5 0 
" style="stroke: #000000; stroke-width: 0.8"/>
      </defs>
      <g>
       <use xlink:href="#m18ebde9578" x="62.773563" y="74.133364" style="stroke: #000000; stroke-width: 0.8"/>
      </g>
     </g>
     <g id="text_3">
      <!-- −10 -->
      <g transform="translate(38.811063 77.71227) scale(0.1 -0.1)">
       <defs>
        <path id="ArialMT-2212" d="M 3381 1997 
L 356 1997 
L 356 2522 
L 3381 2522 
L 3381 1997 
z
" transform="scale(0.015625)"/>
        <path id="ArialMT-31" d="M 2384 0 
L 1822 0 
L 1822 3584 
Q 1619 3391 1289 3197 
Q 959 3003 697 2906 
L 697 3450 
Q 1169 3672 1522 3987 
Q 1875 4303 2022 4600 
L 2384 4600 
L 2384 0 
z
" transform="scale(0.015625)"/>
        <path id="ArialMT-30" d="M 266 2259 
Q 266 3072 433 3567 
Q 600 4063 929 4331 
Q 1259 4600 1759 4600 
Q 2128 4600 2406 4451 
Q 2684 4303 2865 4023 
Q 3047 3744 3150 3342 
Q 3253 2941 3253 2259 
Q 3253 1453 3087 958 
Q 2922 463 2592 192 
Q 2263 -78 1759 -78 
Q 1097 -78 719 397 
Q 266 969 266 2259 
z
M 844 2259 
Q 844 1131 1108 757 
Q 1372 384 1759 384 
Q 2147 384 2411 759 
Q 2675 1134 2675 2259 
Q 2675 3391 2411 3762 
Q 2147 4134 1753 4134 
Q 1366 4134 1134 3806 
Q 844 3388 844 2259 
z
" transform="scale(0.015625)"/>
       </defs>
       <use xlink:href="#ArialMT-2212"/>
       <use xlink:href="#ArialMT-31" transform="translate(58.398438 0)"/>
       <use xlink:href="#ArialMT-30" transform="translate(114.013672 0)"/>
      </g>
     </g>
    </g>
    <g id="ytick_2">
     <g id="line2d_4">
      <g>
       <use xlink:href="#m18ebde9578" x="62.773563" y="149.46253" style="stroke: #000000; stroke-width: 0.8"/>
      </g>
     </g>
     <g id="text_4">
      <!-- −20 -->
      <g transform="translate(38.811063 153.041436) scale(0.1 -0.1)">
       <defs>
        <path id="ArialMT-32" d="M 3222 541 
L 3222 0 
L 194 0 
Q 188 203 259 391 
Q 375 700 629 1000 
Q 884 1300 1366 1694 
Q 2113 2306 2375 2664 
Q 2638 3022 2638 3341 
Q 2638 3675 2398 3904 
Q 2159 4134 1775 4134 
Q 1369 4134 1125 3890 
Q 881 3647 878 3216 
L 300 3275 
Q 359 3922 746 4261 
Q 1134 4600 1788 4600 
Q 2447 4600 2831 4234 
Q 3216 3869 3216 3328 
Q 3216 3053 3103 2787 
Q 2991 2522 2730 2228 
Q 2469 1934 1863 1422 
Q 1356 997 1212 845 
Q 1069 694 975 541 
L 3222 541 
z
" transform="scale(0.015625)"/>
       </defs>
       <use xlink:href="#ArialMT-2212"/>
       <use xlink:href="#ArialMT-32" transform="translate(58.398438 0)"/>
       <use xlink:href="#ArialMT-30" transform="translate(114.013672 0)"/>
      </g>
     </g>
    </g>
    <g id="ytick_3">
     <g id="line2d_5">
      <g>
       <use xlink:href="#m18ebde9578" x="62.773563" y="173.339184" style="stroke: #000000; stroke-width: 0.8"/>
      </g>
     </g>
     <g id="text_5">
      <!-- −30 -->
      <g transform="translate(38.811063 176.91809) scale(0.1 -0.1)">
       <defs>
        <path id="ArialMT-33" d="M 269 1209 
L 831 1284 
Q 928 806 1161 595 
Q 1394 384 1728 384 
Q 2125 384 2398 659 
Q 2672 934 2672 1341 
Q 2672 1728 2419 1979 
Q 2166 2231 1775 2231 
Q 1616 2231 1378 2169 
L 1441 2663 
Q 1497 2656 1531 2656 
Q 1891 2656 2178 2843 
Q 2466 3031 2466 3422 
Q 2466 3731 2256 3934 
Q 2047 4138 1716 4138 
Q 1388 4138 1169 3931 
Q 950 3725 888 3313 
L 325 3413 
Q 428 3978 793 4289 
Q 1159 4600 1703 4600 
Q 2078 4600 2393 4439 
Q 2709 4278 2876 4000 
Q 3044 3722 3044 3409 
Q 3044 3113 2884 2869 
Q 2725 2625 2413 2481 
Q 2819 2388 3044 2092 
Q 3269 1797 3269 1353 
Q 3269 753 2831 336 
Q 2394 -81 1725 -81 
Q 1122 -81 723 278 
Q 325 638 269 1209 
z
" transform="scale(0.015625)"/>
       </defs>
       <use xlink:href="#ArialMT-2212"/>
       <use xlink:href="#ArialMT-33" transform="translate(58.398438 0)"/>
       <use xlink:href="#ArialMT-30" transform="translate(114.013672 0)"/>
      </g>
     </g>
    </g>
    <g id="ytick_4">
     <g id="line2d_6">
      <defs>
       <path id="m62c0e68bf6" d="M 0 0 
L -2 0 
" style="stroke: #000000; stroke-width: 0.6"/>
      </defs>
      <g>
       <use xlink:href="#m62c0e68bf6" x="62.773563" y="168.215339" style="stroke: #000000; stroke-width: 0.6"/>
      </g>
     </g>
    </g>
    <g id="ytick_5">
     <g id="line2d_7">
      <g>
       <use xlink:href="#m62c0e68bf6" x="62.773563" y="162.602801" style="stroke: #000000; stroke-width: 0.6"/>
      </g>
     </g>
    </g>
    <g id="ytick_6">
     <g id="line2d_8">
      <g>
       <use xlink:href="#m62c0e68bf6" x="62.773563" y="156.398428" style="stroke: #000000; stroke-width: 0.6"/>
      </g>
     </g>
    </g>
    <g id="ytick_7">
     <g id="line2d_9">
      <g>
       <use xlink:href="#m62c0e68bf6" x="62.773563" y="130.630239" style="stroke: #000000; stroke-width: 0.6"/>
      </g>
     </g>
    </g>
    <g id="ytick_8">
     <g id="line2d_10">
      <g>
       <use xlink:href="#m62c0e68bf6" x="62.773563" y="111.797947" style="stroke: #000000; stroke-width: 0.6"/>
      </g>
     </g>
    </g>
    <g id="ytick_9">
     <g id="line2d_11">
      <g>
       <use xlink:href="#m62c0e68bf6" x="62.773563" y="92.965656" style="stroke: #000000; stroke-width: 0.6"/>
      </g>
     </g>
    </g>
    <g id="ytick_10">
     <g id="line2d_12">
      <g>
       <use xlink:href="#m62c0e68bf6" x="62.773563" y="55.301073" style="stroke: #000000; stroke-width: 0.6"/>
      </g>
     </g>
    </g>
    <g id="ytick_11">
     <g id="line2d_13">
      <g>
       <use xlink:href="#m62c0e68bf6" x="62.773563" y="36.468781" style="stroke: #000000; stroke-width: 0.6"/>
      </g>
     </g>
    </g>
    <g id="text_6">
     <!-- Ghosh &amp; Dill 2010 $ΔG(L,T)$ -->
     <g transform="translate(17.220937 186.957524) rotate(-90) scale(0.14 -0.14)">
      <defs>
       <path id="ArialMT-47" d="M 2638 1797 
L 2638 2334 
L 4578 2338 
L 4578 638 
Q 4131 281 3656 101 
Q 3181 -78 2681 -78 
Q 2006 -78 1454 211 
Q 903 500 622 1047 
Q 341 1594 341 2269 
Q 341 2938 620 3517 
Q 900 4097 1425 4378 
Q 1950 4659 2634 4659 
Q 3131 4659 3532 4498 
Q 3934 4338 4162 4050 
Q 4391 3763 4509 3300 
L 3963 3150 
Q 3859 3500 3706 3700 
Q 3553 3900 3268 4020 
Q 2984 4141 2638 4141 
Q 2222 4141 1919 4014 
Q 1616 3888 1430 3681 
Q 1244 3475 1141 3228 
Q 966 2803 966 2306 
Q 966 1694 1177 1281 
Q 1388 869 1791 669 
Q 2194 469 2647 469 
Q 3041 469 3416 620 
Q 3791 772 3984 944 
L 3984 1797 
L 2638 1797 
z
" transform="scale(0.015625)"/>
       <path id="ArialMT-68" d="M 422 0 
L 422 4581 
L 984 4581 
L 984 2938 
Q 1378 3394 1978 3394 
Q 2347 3394 2619 3248 
Q 2891 3103 3008 2847 
Q 3125 2591 3125 2103 
L 3125 0 
L 2563 0 
L 2563 2103 
Q 2563 2525 2380 2717 
Q 2197 2909 1863 2909 
Q 1613 2909 1392 2779 
Q 1172 2650 1078 2428 
Q 984 2206 984 1816 
L 984 0 
L 422 0 
z
" transform="scale(0.015625)"/>
       <path id="ArialMT-20" transform="scale(0.015625)"/>
       <path id="ArialMT-26" d="M 3041 541 
Q 2763 231 2434 76 
Q 2106 -78 1725 -78 
Q 1022 -78 609 397 
Q 275 784 275 1263 
Q 275 1688 548 2030 
Q 822 2372 1366 2631 
Q 1056 2988 953 3209 
Q 850 3431 850 3638 
Q 850 4050 1173 4354 
Q 1497 4659 1988 4659 
Q 2456 4659 2754 4371 
Q 3053 4084 3053 3681 
Q 3053 3028 2188 2566 
L 3009 1519 
Q 3150 1794 3228 2156 
L 3813 2031 
Q 3663 1431 3406 1044 
Q 3722 625 4122 341 
L 3744 -106 
Q 3403 113 3041 541 
z
M 1897 2928 
Q 2263 3144 2370 3306 
Q 2478 3469 2478 3666 
Q 2478 3900 2329 4048 
Q 2181 4197 1959 4197 
Q 1731 4197 1579 4050 
Q 1428 3903 1428 3691 
Q 1428 3584 1483 3467 
Q 1538 3350 1647 3219 
L 1897 2928 
z
M 2688 984 
L 1656 2263 
Q 1200 1991 1040 1758 
Q 881 1525 881 1297 
Q 881 1019 1103 719 
Q 1325 419 1731 419 
Q 1984 419 2254 576 
Q 2525 734 2688 984 
z
" transform="scale(0.015625)"/>
       <path id="DejaVuSans-394" d="M 2188 4044 
L 906 525 
L 3472 525 
L 2188 4044 
z
M 50 0 
L 1831 4666 
L 2547 4666 
L 4325 0 
L 50 0 
z
" transform="scale(0.015625)"/>
       <path id="DejaVuSans-Oblique-47" d="M 3494 697 
L 3738 1919 
L 2700 1919 
L 2797 2438 
L 4453 2438 
L 4050 384 
Q 3634 156 3143 32 
Q 2653 -91 2156 -91 
Q 1278 -91 783 396 
Q 288 884 288 1753 
Q 288 2475 589 3126 
Q 891 3778 1422 4213 
Q 1756 4484 2153 4617 
Q 2550 4750 3034 4750 
Q 3472 4750 3873 4639 
Q 4275 4528 4641 4306 
L 4513 3634 
Q 4231 3928 3853 4083 
Q 3475 4238 3047 4238 
Q 2550 4238 2172 4048 
Q 1794 3859 1497 3463 
Q 1244 3125 1098 2667 
Q 953 2209 953 1734 
Q 953 1081 1287 751 
Q 1622 422 2284 422 
Q 2616 422 2925 492 
Q 3234 563 3494 697 
z
" transform="scale(0.015625)"/>
       <path id="DejaVuSans-28" d="M 1984 4856 
Q 1566 4138 1362 3434 
Q 1159 2731 1159 2009 
Q 1159 1288 1364 580 
Q 1569 -128 1984 -844 
L 1484 -844 
Q 1016 -109 783 600 
Q 550 1309 550 2009 
Q 550 2706 781 3412 
Q 1013 4119 1484 4856 
L 1984 4856 
z
" transform="scale(0.015625)"/>
       <path id="DejaVuSans-Oblique-4c" d="M 1075 4666 
L 1709 4666 
L 909 525 
L 3181 525 
L 3078 0 
L 172 0 
L 1075 4666 
z
" transform="scale(0.015625)"/>
       <path id="DejaVuSans-2c" d="M 750 794 
L 1409 794 
L 1409 256 
L 897 -744 
L 494 -744 
L 750 256 
L 750 794 
z
" transform="scale(0.015625)"/>
       <path id="DejaVuSans-Oblique-54" d="M 378 4666 
L 4325 4666 
L 4225 4134 
L 2559 4134 
L 1759 0 
L 1125 0 
L 1925 4134 
L 275 4134 
L 378 4666 
z
" transform="scale(0.015625)"/>
       <path id="DejaVuSans-29" d="M 513 4856 
L 1013 4856 
Q 1481 4119 1714 3412 
Q 1947 2706 1947 2009 
Q 1947 1309 1714 600 
Q 1481 -109 1013 -844 
L 513 -844 
Q 928 -128 1133 580 
Q 1338 1288 1338 2009 
Q 1338 2731 1133 3434 
Q 928 4138 513 4856 
z
" transform="scale(0.015625)"/>
      </defs>
      <use xlink:href="#ArialMT-47" transform="translate(0 0.125)"/>
      <use xlink:href="#ArialMT-68" transform="translate(77.783203 0.125)"/>
      <use xlink:href="#ArialMT-6f" transform="translate(133.398438 0.125)"/>
      <use xlink:href="#ArialMT-73" transform="translate(189.013672 0.125)"/>
      <use xlink:href="#ArialMT-68" transform="translate(239.013672 0.125)"/>
      <use xlink:href="#ArialMT-20" transform="translate(294.628906 0.125)"/>
      <use xlink:href="#ArialMT-26" transform="translate(322.412109 0.125)"/>
      <use xlink:href="#ArialMT-20" transform="translate(389.111328 0.125)"/>
      <use xlink:href="#ArialMT-44" transform="translate(416.894531 0.125)"/>
      <use xlink:href="#ArialMT-69" transform="translate(489.111328 0.125)"/>
      <use xlink:href="#ArialMT-6c" transform="translate(511.328125 0.125)"/>
      <use xlink:href="#ArialMT-6c" transform="translate(533.544922 0.125)"/>
      <use xlink:href="#ArialMT-20" transform="translate(555.761719 0.125)"/>
      <use xlink:href="#ArialMT-32" transform="translate(583.544922 0.125)"/>
      <use xlink:href="#ArialMT-30" transform="translate(639.160156 0.125)"/>
      <use xlink:href="#ArialMT-31" transform="translate(694.775391 0.125)"/>
      <use xlink:href="#ArialMT-30" transform="translate(750.390625 0.125)"/>
      <use xlink:href="#ArialMT-20" transform="translate(806.005859 0.125)"/>
      <use xlink:href="#DejaVuSans-394" transform="translate(833.789062 0.125)"/>
      <use xlink:href="#DejaVuSans-Oblique-47" transform="translate(902.197266 0.125)"/>
      <use xlink:href="#DejaVuSans-28" transform="translate(979.6875 0.125)"/>
      <use xlink:href="#DejaVuSans-Oblique-4c" transform="translate(1018.701172 0.125)"/>
      <use xlink:href="#DejaVuSans-2c" transform="translate(1074.414062 0.125)"/>
      <use xlink:href="#DejaVuSans-Oblique-54" transform="translate(1125.683594 0.125)"/>
      <use xlink:href="#DejaVuSans-29" transform="translate(1186.767578 0.125)"/>
     </g>
     <!-- kcal/mol -->
     <g transform="translate(32.028563 126.80893) rotate(-90) scale(0.14 -0.14)">
      <defs>
       <path id="ArialMT-2f" d="M 0 -78 
L 1328 4659 
L 1778 4659 
L 453 -78 
L 0 -78 
z
" transform="scale(0.015625)"/>
      </defs>
      <use xlink:href="#ArialMT-6b"/>
      <use xlink:href="#ArialMT-63" transform="translate(50 0)"/>
      <use xlink:href="#ArialMT-61" transform="translate(100 0)"/>
      <use xlink:href="#ArialMT-6c" transform="translate(155.615234 0)"/>
      <use xlink:href="#ArialMT-2f" transform="translate(177.832031 0)"/>
      <use xlink:href="#ArialMT-6d" transform="translate(205.615234 0)"/>
      <use xlink:href="#ArialMT-6f" transform="translate(288.916016 0)"/>
      <use xlink:href="#ArialMT-6c" transform="translate(344.53125 0)"/>
     </g>
    </g>
   </g>
   <g id="PathCollection_1">
    <defs>
     <path id="C0_0_032b472f64" d="M 0 1.732051 
C 0.459345 1.732051 0.899939 1.549551 1.224745 1.224745 
C 1.549551 0.899939 1.732051 0.459345 1.732051 -0 
C 1.732051 -0.459345 1.549551 -0.899939 1.224745 -1.224745 
C 0.899939 -1.549551 0.459345 -1.732051 0 -1.732051 
C -0.459345 -1.732051 -0.899939 -1.549551 -1.224745 -1.224745 
C -1.549551 -0.899939 -1.732051 -0.459345 -1.732051 0 
C -1.732051 0.459345 -1.549551 0.899939 -1.224745 1.224745 
C -0.899939 1.549551 -0.459345 1.732051 0 1.732051 
z
"/>
    </defs>
    <g clip-path="url(#pff8e5404c7)">
     <use xlink:href="#C0_0_032b472f64" x="89.741659" y="142.127791" style="fill: #ee99aa; fill-opacity: 0.8"/>
    </g>
    <g clip-path="url(#pff8e5404c7)">
     <use xlink:href="#C0_0_032b472f64" x="92.776158" y="71.314231" style="fill: #ee99aa; fill-opacity: 0.8"/>
    </g>
    <g clip-path="url(#pff8e5404c7)">
     <use xlink:href="#C0_0_032b472f64" x="95.229013" y="52.001441" style="fill: #ee99aa; fill-opacity: 0.8"/>
    </g>
    <g clip-path="url(#pff8e5404c7)">
     <use xlink:href="#C0_0_032b472f64" x="89.024146" y="82.087351" style="fill: #ee99aa; fill-opacity: 0.8"/>
    </g>
    <g clip-path="url(#pff8e5404c7)">
     <use xlink:href="#C0_0_032b472f64" x="88.616997" y="92.203574" style="fill: #ee99aa; fill-opacity: 0.8"/>
    </g>
    <g clip-path="url(#pff8e5404c7)">
     <use xlink:href="#C0_0_032b472f64" x="92.706031" y="87.342532" style="fill: #ee99aa; fill-opacity: 0.8"/>
    </g>
    <g clip-path="url(#pff8e5404c7)">
     <use xlink:href="#C0_0_032b472f64" x="94.29072" y="44.25005" style="fill: #ee99aa; fill-opacity: 0.8"/>
    </g>
    <g clip-path="url(#pff8e5404c7)">
     <use xlink:href="#C0_0_032b472f64" x="92.20018" y="120.187412" style="fill: #ee99aa; fill-opacity: 0.8"/>
    </g>
    <g clip-path="url(#pff8e5404c7)">
     <use xlink:href="#C0_0_032b472f64" x="89.14317" y="78.277345" style="fill: #ee99aa; fill-opacity: 0.8"/>
    </g>
    <g clip-path="url(#pff8e5404c7)">
     <use xlink:href="#C0_0_032b472f64" x="96.52517" y="151.390776" style="fill: #ee99aa; fill-opacity: 0.8"/>
    </g>
    <g clip-path="url(#pff8e5404c7)">
     <use xlink:href="#C0_0_032b472f64" x="96.484413" y="55.680068" style="fill: #ee99aa; fill-opacity: 0.8"/>
    </g>
    <g clip-path="url(#pff8e5404c7)">
     <use xlink:href="#C0_0_032b472f64" x="89.090147" y="57.256622" style="fill: #ee99aa; fill-opacity: 0.8"/>
    </g>
    <g clip-path="url(#pff8e5404c7)">
     <use xlink:href="#C0_0_032b472f64" x="96.875695" y="83.532526" style="fill: #ee99aa; fill-opacity: 0.8"/>
    </g>
    <g clip-path="url(#pff8e5404c7)">
     <use xlink:href="#C0_0_032b472f64" x="92.168334" y="48.191435" style="fill: #ee99aa; fill-opacity: 0.8"/>
    </g>
    <g clip-path="url(#pff8e5404c7)">
     <use xlink:href="#C0_0_032b472f64" x="88.847677" y="75.781134" style="fill: #ee99aa; fill-opacity: 0.8"/>
    </g>
    <g clip-path="url(#pff8e5404c7)">
     <use xlink:href="#C0_0_032b472f64" x="90.095293" y="88.130809" style="fill: #ee99aa; fill-opacity: 0.8"/>
    </g>
    <g clip-path="url(#pff8e5404c7)">
     <use xlink:href="#C0_0_032b472f64" x="86.82916" y="66.584568" style="fill: #ee99aa; fill-opacity: 0.8"/>
    </g>
    <g clip-path="url(#pff8e5404c7)">
     <use xlink:href="#C0_0_032b472f64" x="92.662129" y="76.569411" style="fill: #ee99aa; fill-opacity: 0.8"/>
    </g>
    <g clip-path="url(#pff8e5404c7)">
     <use xlink:href="#C0_0_032b472f64" x="84.270525" y="83.532526" style="fill: #ee99aa; fill-opacity: 0.8"/>
    </g>
    <g clip-path="url(#pff8e5404c7)">
     <use xlink:href="#C0_0_032b472f64" x="92.087144" y="68.029743" style="fill: #ee99aa; fill-opacity: 0.8"/>
    </g>
    <g clip-path="url(#pff8e5404c7)">
     <use xlink:href="#C0_0_032b472f64" x="88.975288" y="88.130809" style="fill: #ee99aa; fill-opacity: 0.8"/>
    </g>
    <g clip-path="url(#pff8e5404c7)">
     <use xlink:href="#C0_0_032b472f64" x="91.517373" y="96.801857" style="fill: #ee99aa; fill-opacity: 0.8"/>
    </g>
    <g clip-path="url(#pff8e5404c7)">
     <use xlink:href="#C0_0_032b472f64" x="88.229044" y="117.297062" style="fill: #ee99aa; fill-opacity: 0.8"/>
    </g>
    <g clip-path="url(#pff8e5404c7)">
     <use xlink:href="#C0_0_032b472f64" x="89.667671" y="85.765978" style="fill: #ee99aa; fill-opacity: 0.8"/>
    </g>
    <g clip-path="url(#pff8e5404c7)">
     <use xlink:href="#C0_0_032b472f64" x="89.088982" y="50.293508" style="fill: #ee99aa; fill-opacity: 0.8"/>
    </g>
    <g clip-path="url(#pff8e5404c7)">
     <use xlink:href="#C0_0_032b472f64" x="93.923143" y="91.021158" style="fill: #ee99aa; fill-opacity: 0.8"/>
    </g>
    <g clip-path="url(#pff8e5404c7)">
     <use xlink:href="#C0_0_032b472f64" x="91.16811" y="46.220742" style="fill: #ee99aa; fill-opacity: 0.8"/>
    </g>
    <g clip-path="url(#pff8e5404c7)">
     <use xlink:href="#C0_0_032b472f64" x="88.892733" y="50.030748" style="fill: #ee99aa; fill-opacity: 0.8"/>
    </g>
    <g clip-path="url(#pff8e5404c7)">
     <use xlink:href="#C0_0_032b472f64" x="92.403671" y="97.721514" style="fill: #ee99aa; fill-opacity: 0.8"/>
    </g>
    <g clip-path="url(#pff8e5404c7)">
     <use xlink:href="#C0_0_032b472f64" x="88.696162" y="81.299074" style="fill: #ee99aa; fill-opacity: 0.8"/>
    </g>
    <g clip-path="url(#pff8e5404c7)">
     <use xlink:href="#C0_0_032b472f64" x="88.676861" y="68.81802" style="fill: #ee99aa; fill-opacity: 0.8"/>
    </g>
    <g clip-path="url(#pff8e5404c7)">
     <use xlink:href="#C0_0_032b472f64" x="84.720523" y="93.123231" style="fill: #ee99aa; fill-opacity: 0.8"/>
    </g>
    <g clip-path="url(#pff8e5404c7)">
     <use xlink:href="#C0_0_032b472f64" x="85.798238" y="157.026293" style="fill: #ee99aa; fill-opacity: 0.8"/>
    </g>
    <g clip-path="url(#pff8e5404c7)">
     <use xlink:href="#C0_0_032b472f64" x="89.15558" y="73.022164" style="fill: #ee99aa; fill-opacity: 0.8"/>
    </g>
    <g clip-path="url(#pff8e5404c7)">
     <use xlink:href="#C0_0_032b472f64" x="91.97525" y="110.859466" style="fill: #ee99aa; fill-opacity: 0.8"/>
    </g>
    <g clip-path="url(#pff8e5404c7)">
     <use xlink:href="#C0_0_032b472f64" x="86.224677" y="41.49108" style="fill: #ee99aa; fill-opacity: 0.8"/>
    </g>
    <g clip-path="url(#pff8e5404c7)">
     <use xlink:href="#C0_0_032b472f64" x="93.938546" y="110.596707" style="fill: #ee99aa; fill-opacity: 0.8"/>
    </g>
    <g clip-path="url(#pff8e5404c7)">
     <use xlink:href="#C0_0_032b472f64" x="88.222849" y="148.171249" style="fill: #ee99aa; fill-opacity: 0.8"/>
    </g>
    <g clip-path="url(#pff8e5404c7)">
     <use xlink:href="#C0_0_032b472f64" x="95.727399" y="119.530514" style="fill: #ee99aa; fill-opacity: 0.8"/>
    </g>
    <g clip-path="url(#pff8e5404c7)">
     <use xlink:href="#C0_0_032b472f64" x="85.832456" y="88.130809" style="fill: #ee99aa; fill-opacity: 0.8"/>
    </g>
    <g clip-path="url(#pff8e5404c7)">
     <use xlink:href="#C0_0_032b472f64" x="93.878619" y="55.548688" style="fill: #ee99aa; fill-opacity: 0.8"/>
    </g>
    <g clip-path="url(#pff8e5404c7)">
     <use xlink:href="#C0_0_032b472f64" x="85.222348" y="56.862483" style="fill: #ee99aa; fill-opacity: 0.8"/>
    </g>
    <g clip-path="url(#pff8e5404c7)">
     <use xlink:href="#C0_0_032b472f64" x="91.280069" y="55.548688" style="fill: #ee99aa; fill-opacity: 0.8"/>
    </g>
    <g clip-path="url(#pff8e5404c7)">
     <use xlink:href="#C0_0_032b472f64" x="95.623383" y="66.584568" style="fill: #ee99aa; fill-opacity: 0.8"/>
    </g>
    <g clip-path="url(#pff8e5404c7)">
     <use xlink:href="#C0_0_032b472f64" x="91.794621" y="139.631581" style="fill: #ee99aa; fill-opacity: 0.8"/>
    </g>
    <g clip-path="url(#pff8e5404c7)">
     <use xlink:href="#C0_0_032b472f64" x="92.204879" y="60.935249" style="fill: #ee99aa; fill-opacity: 0.8"/>
    </g>
    <g clip-path="url(#pff8e5404c7)">
     <use xlink:href="#C0_0_032b472f64" x="88.047484" y="76.306652" style="fill: #ee99aa; fill-opacity: 0.8"/>
    </g>
    <g clip-path="url(#pff8e5404c7)">
     <use xlink:href="#C0_0_032b472f64" x="93.450035" y="92.597713" style="fill: #ee99aa; fill-opacity: 0.8"/>
    </g>
    <g clip-path="url(#pff8e5404c7)">
     <use xlink:href="#C0_0_032b472f64" x="93.284763" y="85.765978" style="fill: #ee99aa; fill-opacity: 0.8"/>
    </g>
    <g clip-path="url(#pff8e5404c7)">
     <use xlink:href="#C0_0_032b472f64" x="88.264453" y="121.895345" style="fill: #ee99aa; fill-opacity: 0.8"/>
    </g>
    <g clip-path="url(#pff8e5404c7)">
     <use xlink:href="#C0_0_032b472f64" x="92.803615" y="52.2642" style="fill: #ee99aa; fill-opacity: 0.8"/>
    </g>
    <g clip-path="url(#pff8e5404c7)">
     <use xlink:href="#C0_0_032b472f64" x="92.554928" y="43.199013" style="fill: #ee99aa; fill-opacity: 0.8"/>
    </g>
    <g clip-path="url(#pff8e5404c7)">
     <use xlink:href="#C0_0_032b472f64" x="87.405565" y="48.454194" style="fill: #ee99aa; fill-opacity: 0.8"/>
    </g>
    <g clip-path="url(#pff8e5404c7)">
     <use xlink:href="#C0_0_032b472f64" x="90.836891" y="116.902924" style="fill: #ee99aa; fill-opacity: 0.8"/>
    </g>
    <g clip-path="url(#pff8e5404c7)">
     <use xlink:href="#C0_0_032b472f64" x="93.479359" y="56.993863" style="fill: #ee99aa; fill-opacity: 0.8"/>
    </g>
    <g clip-path="url(#pff8e5404c7)">
     <use xlink:href="#C0_0_032b472f64" x="93.337871" y="83.926664" style="fill: #ee99aa; fill-opacity: 0.8"/>
    </g>
    <g clip-path="url(#pff8e5404c7)">
     <use xlink:href="#C0_0_032b472f64" x="89.75951" y="38.206592" style="fill: #ee99aa; fill-opacity: 0.8"/>
    </g>
    <g clip-path="url(#pff8e5404c7)">
     <use xlink:href="#C0_0_032b472f64" x="91.45307" y="83.663905" style="fill: #ee99aa; fill-opacity: 0.8"/>
    </g>
    <g clip-path="url(#pff8e5404c7)">
     <use xlink:href="#C0_0_032b472f64" x="92.946507" y="39.914525" style="fill: #ee99aa; fill-opacity: 0.8"/>
    </g>
    <g clip-path="url(#pff8e5404c7)">
     <use xlink:href="#C0_0_032b472f64" x="87.238275" y="105.735665" style="fill: #ee99aa; fill-opacity: 0.8"/>
    </g>
    <g clip-path="url(#pff8e5404c7)">
     <use xlink:href="#C0_0_032b472f64" x="92.939928" y="53.315236" style="fill: #ee99aa; fill-opacity: 0.8"/>
    </g>
    <g clip-path="url(#pff8e5404c7)">
     <use xlink:href="#C0_0_032b472f64" x="88.998573" y="75.518375" style="fill: #ee99aa; fill-opacity: 0.8"/>
    </g>
    <g clip-path="url(#pff8e5404c7)">
     <use xlink:href="#C0_0_032b472f64" x="90.143901" y="94.042887" style="fill: #ee99aa; fill-opacity: 0.8"/>
    </g>
   </g>
   <g id="PathCollection_2">
    <defs>
     <path id="C1_0_30286b140d" d="M 0 1.732051 
C 0.459345 1.732051 0.899939 1.549551 1.224745 1.224745 
C 1.549551 0.899939 1.732051 0.459345 1.732051 -0 
C 1.732051 -0.459345 1.549551 -0.899939 1.224745 -1.224745 
C 0.899939 -1.549551 0.459345 -1.732051 0 -1.732051 
C -0.459345 -1.732051 -0.899939 -1.549551 -1.224745 -1.224745 
C -1.549551 -0.899939 -1.732051 -0.459345 -1.732051 0 
C -1.732051 0.459345 -1.549551 0.899939 -1.224745 1.224745 
C -0.899939 1.549551 -0.459345 1.732051 0 1.732051 
z
"/>
    </defs>
    <g clip-path="url(#pff8e5404c7)">
     <use xlink:href="#C1_0_30286b140d" x="127.54581" y="94.042887" style="fill: #994455; fill-opacity: 0.8"/>
    </g>
    <g clip-path="url(#pff8e5404c7)">
     <use xlink:href="#C1_0_30286b140d" x="127.428918" y="126.09949" style="fill: #994455; fill-opacity: 0.8"/>
    </g>
    <g clip-path="url(#pff8e5404c7)">
     <use xlink:href="#C1_0_30286b140d" x="128.738702" y="92.203574" style="fill: #994455; fill-opacity: 0.8"/>
    </g>
    <g clip-path="url(#pff8e5404c7)">
     <use xlink:href="#C1_0_30286b140d" x="125.552254" y="133.982261" style="fill: #994455; fill-opacity: 0.8"/>
    </g>
    <g clip-path="url(#pff8e5404c7)">
     <use xlink:href="#C1_0_30286b140d" x="128.226575" y="42.279357" style="fill: #994455; fill-opacity: 0.8"/>
    </g>
    <g clip-path="url(#pff8e5404c7)">
     <use xlink:href="#C1_0_30286b140d" x="128.851266" y="90.889779" style="fill: #994455; fill-opacity: 0.8"/>
    </g>
    <g clip-path="url(#pff8e5404c7)">
     <use xlink:href="#C1_0_30286b140d" x="128.924139" y="67.241465" style="fill: #994455; fill-opacity: 0.8"/>
    </g>
    <g clip-path="url(#pff8e5404c7)">
     <use xlink:href="#C1_0_30286b140d" x="133.863183" y="71.314231" style="fill: #994455; fill-opacity: 0.8"/>
    </g>
    <g clip-path="url(#pff8e5404c7)">
     <use xlink:href="#C1_0_30286b140d" x="132.619112" y="101.53152" style="fill: #994455; fill-opacity: 0.8"/>
    </g>
    <g clip-path="url(#pff8e5404c7)">
     <use xlink:href="#C1_0_30286b140d" x="130.463982" y="114.538092" style="fill: #994455; fill-opacity: 0.8"/>
    </g>
    <g clip-path="url(#pff8e5404c7)">
     <use xlink:href="#C1_0_30286b140d" x="127.054239" y="71.051472" style="fill: #994455; fill-opacity: 0.8"/>
    </g>
    <g clip-path="url(#pff8e5404c7)">
     <use xlink:href="#C1_0_30286b140d" x="128.836652" y="55.285929" style="fill: #994455; fill-opacity: 0.8"/>
    </g>
    <g clip-path="url(#pff8e5404c7)">
     <use xlink:href="#C1_0_30286b140d" x="127.961318" y="73.022164" style="fill: #994455; fill-opacity: 0.8"/>
    </g>
    <g clip-path="url(#pff8e5404c7)">
     <use xlink:href="#C1_0_30286b140d" x="127.521039" y="58.833176" style="fill: #994455; fill-opacity: 0.8"/>
    </g>
    <g clip-path="url(#pff8e5404c7)">
     <use xlink:href="#C1_0_30286b140d" x="129.201911" y="42.673495" style="fill: #994455; fill-opacity: 0.8"/>
    </g>
    <g clip-path="url(#pff8e5404c7)">
     <use xlink:href="#C1_0_30286b140d" x="129.576678" y="87.605291" style="fill: #994455; fill-opacity: 0.8"/>
    </g>
    <g clip-path="url(#pff8e5404c7)">
     <use xlink:href="#C1_0_30286b140d" x="127.237247" y="87.86805" style="fill: #994455; fill-opacity: 0.8"/>
    </g>
    <g clip-path="url(#pff8e5404c7)">
     <use xlink:href="#C1_0_30286b140d" x="128.189181" y="78.540104" style="fill: #994455; fill-opacity: 0.8"/>
    </g>
    <g clip-path="url(#pff8e5404c7)">
     <use xlink:href="#C1_0_30286b140d" x="132.491974" y="56.993863" style="fill: #994455; fill-opacity: 0.8"/>
    </g>
    <g clip-path="url(#pff8e5404c7)">
     <use xlink:href="#C1_0_30286b140d" x="128.771717" y="39.783146" style="fill: #994455; fill-opacity: 0.8"/>
    </g>
    <g clip-path="url(#pff8e5404c7)">
     <use xlink:href="#C1_0_30286b140d" x="129.122212" y="91.546677" style="fill: #994455; fill-opacity: 0.8"/>
    </g>
    <g clip-path="url(#pff8e5404c7)">
     <use xlink:href="#C1_0_30286b140d" x="133.47293" y="98.247032" style="fill: #994455; fill-opacity: 0.8"/>
    </g>
    <g clip-path="url(#pff8e5404c7)">
     <use xlink:href="#C1_0_30286b140d" x="125.46545" y="47.403158" style="fill: #994455; fill-opacity: 0.8"/>
    </g>
    <g clip-path="url(#pff8e5404c7)">
     <use xlink:href="#C1_0_30286b140d" x="134.786907" y="58.439038" style="fill: #994455; fill-opacity: 0.8"/>
    </g>
    <g clip-path="url(#pff8e5404c7)">
     <use xlink:href="#C1_0_30286b140d" x="124.641654" y="109.67705" style="fill: #994455; fill-opacity: 0.8"/>
    </g>
    <g clip-path="url(#pff8e5404c7)">
     <use xlink:href="#C1_0_30286b140d" x="128.006649" y="116.640165" style="fill: #994455; fill-opacity: 0.8"/>
    </g>
    <g clip-path="url(#pff8e5404c7)">
     <use xlink:href="#C1_0_30286b140d" x="130.000967" y="41.49108" style="fill: #994455; fill-opacity: 0.8"/>
    </g>
    <g clip-path="url(#pff8e5404c7)">
     <use xlink:href="#C1_0_30286b140d" x="128.612996" y="132.931225" style="fill: #994455; fill-opacity: 0.8"/>
    </g>
    <g clip-path="url(#pff8e5404c7)">
     <use xlink:href="#C1_0_30286b140d" x="128.724797" y="93.38599" style="fill: #994455; fill-opacity: 0.8"/>
    </g>
    <g clip-path="url(#pff8e5404c7)">
     <use xlink:href="#C1_0_30286b140d" x="131.016486" y="64.613875" style="fill: #994455; fill-opacity: 0.8"/>
    </g>
    <g clip-path="url(#pff8e5404c7)">
     <use xlink:href="#C1_0_30286b140d" x="127.984034" y="73.810441" style="fill: #994455; fill-opacity: 0.8"/>
    </g>
    <g clip-path="url(#pff8e5404c7)">
     <use xlink:href="#C1_0_30286b140d" x="130.893964" y="120.187412" style="fill: #994455; fill-opacity: 0.8"/>
    </g>
    <g clip-path="url(#pff8e5404c7)">
     <use xlink:href="#C1_0_30286b140d" x="136.569622" y="154.204899" style="fill: #994455; fill-opacity: 0.8"/>
    </g>
    <g clip-path="url(#pff8e5404c7)">
     <use xlink:href="#C1_0_30286b140d" x="131.608676" y="58.833176" style="fill: #994455; fill-opacity: 0.8"/>
    </g>
    <g clip-path="url(#pff8e5404c7)">
     <use xlink:href="#C1_0_30286b140d" x="128.054415" y="95.488062" style="fill: #994455; fill-opacity: 0.8"/>
    </g>
    <g clip-path="url(#pff8e5404c7)">
     <use xlink:href="#C1_0_30286b140d" x="126.700527" y="103.633592" style="fill: #994455; fill-opacity: 0.8"/>
    </g>
   </g>
   <g id="line2d_14">
    <path d="M 90.665915 21.402948 
L 90.665915 17.63649 
L 129.71521 17.63649 
L 129.71521 21.402948 
" style="fill: none; stroke: #000000; stroke-width: 1.5; stroke-linecap: square"/>
   </g>
   <g id="patch_3">
    <path d="M 62.773563 173.339184 
L 62.773563 28.935864 
" style="fill: none; stroke: #000000; stroke-width: 1.5; stroke-linejoin: miter; stroke-linecap: square"/>
   </g>
   <g id="patch_4">
    <path d="M 62.773563 173.339184 
L 157.607562 173.339184 
" style="fill: none; stroke: #000000; stroke-width: 1.5; stroke-linejoin: miter; stroke-linecap: square"/>
   </g>
   <g id="patch_5">
    <path d="M 76.719739 93.583059 
L 104.612092 93.583059 
L 104.612092 56.271276 
L 76.719739 56.271276 
L 76.719739 93.583059 
L 76.719739 93.583059 
z
" clip-path="url(#pff8e5404c7)" style="fill: none; stroke: #000000; stroke-width: 1.5; stroke-linejoin: miter"/>
   </g>
   <g id="line2d_15">
    <path d="M 90.665915 93.583059 
L 90.665915 148.171249 
" clip-path="url(#pff8e5404c7)" style="fill: none; stroke: #000000; stroke-width: 1.2; stroke-linecap: square"/>
   </g>
   <g id="line2d_16">
    <path d="M 90.665915 56.271276 
L 90.665915 38.206592 
" clip-path="url(#pff8e5404c7)" style="fill: none; stroke: #000000; stroke-width: 1.2; stroke-linecap: square"/>
   </g>
   <g id="line2d_17">
    <path d="M 83.692827 148.171249 
L 97.639004 148.171249 
" clip-path="url(#pff8e5404c7)" style="fill: none; stroke: #000000; stroke-width: 1.2; stroke-linecap: square"/>
   </g>
   <g id="line2d_18">
    <path d="M 83.692827 38.206592 
L 97.639004 38.206592 
" clip-path="url(#pff8e5404c7)" style="fill: none; stroke: #000000; stroke-width: 1.2; stroke-linecap: square"/>
   </g>
   <g id="patch_6">
    <path d="M 115.769033 102.057038 
L 143.661386 102.057038 
L 143.661386 58.833176 
L 115.769033 58.833176 
L 115.769033 102.057038 
L 115.769033 102.057038 
z
" clip-path="url(#pff8e5404c7)" style="fill: none; stroke: #000000; stroke-width: 1.5; stroke-linejoin: miter"/>
   </g>
   <g id="line2d_19">
    <path d="M 129.71521 102.057038 
L 129.71521 154.204899 
" clip-path="url(#pff8e5404c7)" style="fill: none; stroke: #000000; stroke-width: 1.2; stroke-linecap: square"/>
   </g>
   <g id="line2d_20">
    <path d="M 129.71521 58.833176 
L 129.71521 39.783146 
" clip-path="url(#pff8e5404c7)" style="fill: none; stroke: #000000; stroke-width: 1.2; stroke-linecap: square"/>
   </g>
   <g id="line2d_21">
    <path d="M 122.742121 154.204899 
L 136.688298 154.204899 
" clip-path="url(#pff8e5404c7)" style="fill: none; stroke: #000000; stroke-width: 1.2; stroke-linecap: square"/>
   </g>
   <g id="line2d_22">
    <path d="M 122.742121 39.783146 
L 136.688298 39.783146 
" clip-path="url(#pff8e5404c7)" style="fill: none; stroke: #000000; stroke-width: 1.2; stroke-linecap: square"/>
   </g>
   <g id="text_7">
    <!-- N.S. -->
    <g transform="translate(99.493922 15.073594) scale(0.11 -0.11)">
     <defs>
      <path id="ArialMT-2e" d="M 581 0 
L 581 641 
L 1222 641 
L 1222 0 
L 581 0 
z
" transform="scale(0.015625)"/>
     </defs>
     <use xlink:href="#ArialMT-4e"/>
     <use xlink:href="#ArialMT-2e" transform="translate(72.216797 0)"/>
     <use xlink:href="#ArialMT-53" transform="translate(100 0)"/>
     <use xlink:href="#ArialMT-2e" transform="translate(166.699219 0)"/>
    </g>
   </g>
   <g id="line2d_23">
    <path d="M 76.719739 81.299074 
L 104.612092 81.299074 
" clip-path="url(#pff8e5404c7)" style="fill: none; stroke: #000000; stroke-width: 1.2"/>
   </g>
   <g id="line2d_24">
    <path d="M 115.769033 87.73667 
L 143.661386 87.73667 
" clip-path="url(#pff8e5404c7)" style="fill: none; stroke: #000000; stroke-width: 1.2"/>
   </g>
  </g>
 </g>
 <defs>
  <clipPath id="pff8e5404c7">
   <rect x="62.773563" y="28.935864" width="94.834" height="144.403319"/>
  </clipPath>
 </defs>
</svg>
